# xmcd CD database file generated by Grip 3.2.0
# 
# Track frame offsets:
#       150
#       13323
#       40097
#       52678
#       81140
#       97182
#       119268
#       144925
#       168439
#       188969
#       206800
#       226791
#       242890
#       268602
#       298866
# 
# Disc length: 4408 seconds
# 
# Revision: 3
# Processed by: cddbd v1.5.2PL0 Copyright (c) Steve Scherf et al.
# Submitted via: Grip 3.2.0
# 
DISCID=d311360f
DTITLE=Various Artist - New York City Salsa Vol. 1 [CD 2)
DYEAR=2007
DGENRE=Salsa
TTITLE0=Fania All-Stars - Mama Guela
TTITLE1=Louie Ramírez - Ahora Es El Tiempo
TTITLE2=Jimmy Sabatar - Por Primera Vez
TTITLE3=Julio Castro and Orquesta Masacre - Rumba Sin Invitados
TTITLE4=Roberto Roena and Su Apollo Sound - Con Los Pobres Estoy
TTITLE5=Tito Gomez - La Envidia Y La Hipocresia
TTITLE6=Celia Cruz and Johnny Pacheco - Toro Mata
TTITLE7=Monguito Santamaría - Ne Ne
TTITLE8=Impacto Crea - Cobarde
TTITLE9=Vitin Aviles - El Mundo Se Ve Deferente
TTITLE10=Tito Puente - Nina Y Señora
TTITLE11=The Lebron Brothers - Sin Ti
TTITLE12=Eddie Palmieri - Bilongo
TTITLE13=Hector Lavoe - Periodico De Ayer
TTITLE14=Tommy Olivencia - Vengo Del Monte
EXTD=YEAR: 2007
EXTT0=
EXTT1=
EXTT2=
EXTT3=
EXTT4=
EXTT5=
EXTT6=
EXTT7=
EXTT8=
EXTT9=
EXTT10=
EXTT11=
EXTT12=
EXTT13=
EXTT14=
PLAYORDER=
